<svg width="33" height="32" viewBox="0 0 33 32" fill="none" xmlns="http://www.w3.org/2000/svg">
<path d="M23.1668 28C23.5204 28 23.8595 27.8596 24.1096 27.6095C24.3596 27.3595 24.5001 27.0203 24.5001 26.6667V19.5334C24.5001 18.924 24.9214 18.408 25.4694 18.1454C26.6041 17.6041 27.511 16.6794 28.0303 15.5346C28.5495 14.3897 28.6476 13.0982 28.3073 11.888C27.967 10.6778 27.2102 9.62671 26.1704 8.92023C25.1305 8.21375 23.8746 7.89729 22.6241 8.0267C22.1091 6.82965 21.2546 5.80977 20.1662 5.09315C19.0778 4.37654 17.8032 3.99463 16.5001 3.99463C15.197 3.99463 13.9224 4.37654 12.834 5.09315C11.7456 5.80977 10.8911 6.82965 10.3761 8.0267C9.12622 7.8982 7.87109 8.21511 6.83202 8.92155C5.79295 9.628 5.03666 10.6786 4.69649 11.8882C4.35632 13.0977 4.45412 14.3885 4.97265 15.533C5.49117 16.6775 6.39713 17.6022 7.53078 18.144C8.07878 18.408 8.50011 18.924 8.50011 19.532V26.6667C8.50011 27.0203 8.64059 27.3595 8.89063 27.6095C9.14068 27.8596 9.47982 28 9.83344 28H23.1668Z" stroke="white" stroke-width="2.66667" stroke-linecap="round" stroke-linejoin="round"/>
<path d="M8.5 22.6667H24.5" stroke="white" stroke-width="2.66667" stroke-linecap="round" stroke-linejoin="round"/>
</svg>
