<svg width="21" height="20" viewBox="0 0 21 20" fill="none" xmlns="http://www.w3.org/2000/svg">
<path d="M16.3333 9.16675H4.66667C3.74619 9.16675 3 9.91294 3 10.8334V16.6667C3 17.5872 3.74619 18.3334 4.66667 18.3334H16.3333C17.2538 18.3334 18 17.5872 18 16.6667V10.8334C18 9.91294 17.2538 9.16675 16.3333 9.16675Z" stroke="#6B6B6B" stroke-width="1.66667" stroke-linecap="round" stroke-linejoin="round"/>
<path d="M6.33325 9.16675V5.83341C6.33325 4.72835 6.77224 3.66854 7.55364 2.88714C8.33504 2.10573 9.39485 1.66675 10.4999 1.66675C11.605 1.66675 12.6648 2.10573 13.4462 2.88714C14.2276 3.66854 14.6666 4.72835 14.6666 5.83341V9.16675" stroke="#6B6B6B" stroke-width="1.66667" stroke-linecap="round" stroke-linejoin="round"/>
</svg>
