<svg width="33" height="32" viewBox="0 0 33 32" fill="none" xmlns="http://www.w3.org/2000/svg">
<path d="M27.1666 17.3333C27.1666 23.9999 22.4999 27.3333 16.9533 29.2666C16.6628 29.365 16.3473 29.3603 16.0599 29.2533C10.4999 27.3333 5.83325 23.9999 5.83325 17.3333V7.99995C5.83325 7.64633 5.97373 7.30719 6.22378 7.05714C6.47383 6.80709 6.81296 6.66662 7.16659 6.66662C9.83325 6.66662 13.1666 5.06662 15.4866 3.03995C15.7691 2.79861 16.1284 2.66602 16.4999 2.66602C16.8714 2.66602 17.2308 2.79861 17.5133 3.03995C19.8466 5.07995 23.1666 6.66662 25.8333 6.66662C26.1869 6.66662 26.526 6.80709 26.7761 7.05714C27.0261 7.30719 27.1666 7.64633 27.1666 7.99995V17.3333Z" stroke="white" stroke-width="2.66667" stroke-linecap="round" stroke-linejoin="round"/>
</svg>
