<svg width="21" height="20" viewBox="0 0 21 20" fill="none" xmlns="http://www.w3.org/2000/svg">
<path d="M2.21835 10.2901C2.1489 10.103 2.1489 9.89715 2.21835 9.71006C2.89476 8.06993 4.04294 6.66759 5.51732 5.6808C6.9917 4.69402 8.72588 4.16724 10.5 4.16724C12.2741 4.16724 14.0083 4.69402 15.4827 5.6808C16.9571 6.66759 18.1053 8.06993 18.7817 9.71006C18.8511 9.89715 18.8511 10.103 18.7817 10.2901C18.1053 11.9302 16.9571 13.3325 15.4827 14.3193C14.0083 15.3061 12.2741 15.8329 10.5 15.8329C8.72588 15.8329 6.9917 15.3061 5.51732 14.3193C4.04294 13.3325 2.89476 11.9302 2.21835 10.2901Z" stroke="#6B6B6B" stroke-width="1.66667" stroke-linecap="round" stroke-linejoin="round"/>
<path d="M10.5 12.5C11.8807 12.5 13 11.3807 13 10C13 8.61929 11.8807 7.5 10.5 7.5C9.11929 7.5 8 8.61929 8 10C8 11.3807 9.11929 12.5 10.5 12.5Z" stroke="#6B6B6B" stroke-width="1.66667" stroke-linecap="round" stroke-linejoin="round"/>
</svg>
